<svg viewBox="0 0 128 128" xmlns="http://www.w3.org/2000/svg">
  <path d="M18 121a27.9 27.9 0 0 1 8-19.61h.1c1.69 8.48 3 15 3.53 17.75L30 124H18Zm100 .07a28.09 28.09 0 0 0-18.75-26.5 5.74 5.74 0 0 1-3.62-3.92c-.73-2.43.37-3.3.37-10.65a63.6 63.6 0 0 0-1.19-12.65.1.1 0 0 1 0-.05C88.34 43.25 68 39 68 39c-10.12 2.11-28 13.9-28 41 0 7.62 1.19 8.42.27 11l-.08.12L40 91l-7.48 1.49L38.17 121v3H118ZM87.14 60l-.1.12C90 68.74 85.94 76.83 78.83 81v7.86h-22.5v-8.41C49.69 76.16 46.1 68.28 49 59.93h.06c11.39-8.62 27.71-7.81 38.08.07" style="fill:#505d68"/>
  <path d="M99.25 94.56a5.73 5.73 0 0 1-3.62-3.91c-19.93 11.57-41.79 9.27-55.43.47L40 91l-7.48 1.49 5.65 28.44L38 124h80v-3a28 28 0 0 0-18.75-26.44" style="fill:#505d68"/>
  <path d="M99.25 94.56a5.73 5.73 0 0 1-3.62-3.91C76.27 101.88 54 100.31 40 91l-7.48 1.49 3.84 19.35a14.65 14.65 0 0 1 7.64 1.47c8.17 4.18 19.67 5.8 28.65 5A5 5 0 0 1 78 124h40v-3a28 28 0 0 0-18.75-26.44" style="fill:#707c85"/>
  <path d="M118 121a28 28 0 0 0-18.75-26.44 5.73 5.73 0 0 1-3.62-3.91C76.27 101.88 54 100.31 40 91l-7.48 1.49 1.53 7.7a15.07 15.07 0 0 1 10.17 1.26c16.4 8.23 31.68 5.2 43.49.83a9.15 9.15 0 0 1 12.34 8.61v5.12a3 3 0 0 1-3 3H94a5 5 0 0 0-5 5h29Z" style="fill:#909ba3"/>
  <path d="M95.62 90.65c-19.93 11.57-41.79 9.27-55.43.47l.08-.12c.92-2.6-.27-3.4-.27-11a66.5 66.5 0 0 1 1-11.53h.12a25.63 25.63 0 0 1 8-10.2c-3 8.59.58 16.71 7.25 21.13V88h22.5v-8C85.94 75.72 90 67.44 87 58.64l.12-.15a25.54 25.54 0 0 1 8 10.6A66.4 66.4 0 0 1 96 80c0 7.36-1.1 8.23-.37 10.65Z" style="fill:#47535b"/>
  <path d="M49.1 58.25A25.64 25.64 0 0 0 41 68.48c.07-.4.15-.79.22-1.18a.3.3 0 0 0 0-.09C47.65 43.24 68 39 68 39s20.34 4.24 26.8 28.2c.1.49.19 1 .28 1.5C92 61.15 84.84 55.24 76 53c-.36-.1-.72-.19-1.09-.26q-1-.24-2.1-.39A33 33 0 0 0 68 52a32.3 32.3 0 0 0-6.73.7 30 30 0 0 0-12.17 5.55" style="fill:#505d68"/>
  <path d="M94.81 67.25C90.3 50.44 77.45 41 68 39c.43.14 3.45 1.26 5.36 5.41a1.75 1.75 0 0 1-1.68 2.45 33 33 0 0 0-4.64.18c-12.24 1.34-21.93 9.25-25 19.24 11.15-20.18 44.33-18.6 53 2.45-.04-.49-.13-.99-.23-1.48" style="fill:#909ba3"/>
  <path d="m19.09 24.94 13.43 67.55 5.65 28.44L38 124h-8l-.35-4.88c-.54-2.7-1.84-9.27-3.53-17.75-5-25.08-13.3-66.94-15-75.37L19 24.45Z" style="fill:#a96e5c"/>
  <path d="M27.76 109.6a27.8 27.8 0 0 0-2.43 11.4v3H18v-3a27.9 27.9 0 0 1 8-19.61h.1c.62 2.99 1.17 5.77 1.66 8.21" style="fill:#47535b"/>
  <path d="M81 65.5a5.5 5.5 0 0 0-5.5-5.5L70 65.5a5.5 5.5 0 0 0 11 0M65.88 76.12a3 3 0 0 0 4.24-4.24h-4.24a3 3 0 0 0 0 4.24M60.5 60a5.5 5.5 0 1 0 5.5 5.5Zm-4.17 19.43C49.66 75 46.06 66.89 49.08 58.3a30.1 30.1 0 0 1 12.19-5.6A32.3 32.3 0 0 1 68 52a33 33 0 0 1 4.79.35q1.06.16 2.1.39c.36.08.73.16 1.09.26a29.8 29.8 0 0 1 11.18 5.49l-.12.15c2.96 8.8-1.1 17.08-8.21 21.36v8h-22.5Z" style="fill:#fff"/>
  <path d="M65.88 76.12a3 3 0 0 1 0-4.24H68V59.83a6.86 6.86 0 0 0-8.62-6.66 29.8 29.8 0 0 0-10.3 5.13c-3 8.59.58 16.71 7.25 21.13V88H68V77a3 3 0 0 1-2.12-.88M60.5 71a5.5 5.5 0 0 1 0-11l5.5 5.5a5.5 5.5 0 0 1-5.5 5.5" style="fill:#e5e5e5"/>
  <path d="M87.16 58.49A29.8 29.8 0 0 0 76 53c8.86 2.24 16 8.15 19.11 15.75v.33a25.54 25.54 0 0 0-7.95-10.59" style="fill:#fff"/>
  <path d="m16.85 13.66 10.79-2.14c70.57-15 94.67 37 94.67 37-7.72-4.29-25.68-21.29-53.7-23.39-11.6-.87-24.94.81-40 7L26.8 22.9 19 24.45 11.14 26l-2 .39L7 15.6l2-.39Z" style="fill:#d7dce0"/>
  <path d="m115 42.31-.32-.22c-13.88-9.72-42.76-29.95-85.8-11.79l-2.33-5.53c46.09-19.45 76.81 2.06 91.57 12.4l.32.22ZM61.27 52.7a30.1 30.1 0 0 0-12.19 5.6 30 30 0 0 1 12.19-5.6M41 68.48a25.64 25.64 0 0 1 8.1-10.23 25.63 25.63 0 0 0-8 10.2Zm54.32.83h-.08a2 2 0 0 0-.1-.24v-.33c-.09-.51-.18-1-.28-1.5.14.68.3 1.37.46 2.07" style="fill:#fff"/>
  <path d="M75.5 60a5.5 5.5 0 1 1-5.5 5.5Z" style="fill:#31352e"/>
  <path d="M76 53c-.36-.1-.73-.18-1.09-.26.35.07.71.16 1.09.26m-1.11-.26q-1-.23-2.1-.39 1.06.15 2.1.39" style="fill:#fff"/>
  <path d="M70.12 71.88a3 3 0 1 1-4.24 0ZM60.5 60l5.5 5.5a5.5 5.5 0 1 1-5.5-5.5" style="fill:#31352e"/>
  <path d="M41.18 67.29c-.07.39-.15.78-.22 1.18h-.08c.12-.41.19-.8.3-1.18" style="fill:#fff"/>
  <path d="m15.88 8.75 1 4.91L9 15.21v-.16L8 10.3c-1-5.21 6.85-6.78 7.88-1.55" style="fill:#a96e5c"/>
  <path d="M125 47.28c-.26-.56-6.52-13.82-21.79-25.27C89.19 11.49 64.57.62 27.06 8.58l-7.85 1.55-.39-2C17-.95 3.29 1.75 5.09 10.89L5.51 13a3 3 0 0 0-1.41 3.18L6.24 27a3 3 0 0 0 2.51 2.37l14.12 71A30.8 30.8 0 0 0 15 121c0 4 6 4 6 0a24.85 24.85 0 0 1 3.45-12.68l2.64 13.26c.78 3.95 6.66 2.71 5.88-1.17l-18.3-92.05 2-.39 18.6 93.55c.79 3.95 6.66 2.71 5.88-1.17L22.52 26.81l1.92-.38 1.25 6.31a3 3 0 0 0 4.09 2.19c49.67-20.46 80.28 10.22 91.08 16.23a3 3 0 0 0 4.14-3.88M11.77 8.55c1.21-.24 1.14.6 1.56 2.74l-2 .39c-.39-2.14-.78-2.89.44-3.13m19.11 19.5-1.13-5.73A3 3 0 0 0 26.21 20l-14.67 2.9-1-4.9C34.06 13.31 78.49.24 110.87 37.24c-24.61-15.9-50.47-20.24-80-9.19Z" style="fill:#31352e"/>
  <path d="M100.25 91.73a3 3 0 0 1-1.84-3.29A60 60 0 0 0 99 80c0-36.64-27.45-47.82-31.63-46.93C67.07 33.13 37 40 37 80a60 60 0 0 0 .59 8.44 3.3 3.3 0 0 1 0 .76 3 3 0 0 0 .7 4.28c6.47 4.4 18 7.37 20.49 7.37a3 3 0 0 0 .48-6 51.1 51.1 0 0 1-15.69-5.26c.19-2.52-1.6-9 .24-20.1A21 21 0 0 1 45.17 67a21.16 21.16 0 0 0 8.17 14v7a3 3 0 0 0 6 0c0-8.94.4-9.92-1.34-11.07-5.6-3.72-8.4-10.38-6.28-16.87a28.76 28.76 0 0 1 32.58 0c2.16 6.62-.73 13.59-7 17.32-1.9 1.13-1.46 2.36-1.46 10.62 0 4 6 4 6 0v-6.42a21.07 21.07 0 0 0 9-14.58 21 21 0 0 1 1.32 2.56 60.7 60.7 0 0 1 .31 18 9 9 0 0 0-.09 1.44A52.3 52.3 0 0 1 68 95.55c-1.53 0-3 1.08-3 3.45v10a3 3 0 0 0 6 0v-7.57a58.5 58.5 0 0 0 23.44-6.72 8.63 8.63 0 0 0 3.82 2.69A25 25 0 0 1 115 121c0 4 6 4 6 0a31.05 31.05 0 0 0-20.75-29.27m-51.36-37A33.24 33.24 0 0 1 68 39.1a33.88 33.88 0 0 1 19 15.55 34.61 34.61 0 0 0-38.12.12Z" style="fill:#31352e"/>
  <path d="M67 88v-3c0-4-6-4-6 0v3c0 4 6 4 6 0m7 0v-3a3 3 0 0 0-6 0v3a3 3 0 0 0 6 0m-9 29v4c0 4 6 4 6 0v-4c0-4-6-4-6 0" style="fill:#31352e"/>
</svg>
